<?xml version="1.0" encoding="utf-8"?>
<!-- Generator: Adobe Illustrator 18.1.1, SVG Export Plug-In . SVG Version: 6.00 Build 0)  -->
<!DOCTYPE svg PUBLIC "-//W3C//DTD SVG 1.1//EN" "http://www.w3.org/Graphics/SVG/1.1/DTD/svg11.dtd">
<svg version="1.1" id="Layer_1" xmlns="http://www.w3.org/2000/svg" xmlns:xlink="http://www.w3.org/1999/xlink" x="0px" y="0px"
	 viewBox="0 0 325.6 103" enable-background="new 0 0 325.6 103" xml:space="preserve">
<g>
	<g>
		<path fill="#FFFFFF" d="M193.9,41.8c0-7.8-3.3-14.7-14.6-14.7c-5.8,0-10.4,1.6-12.9,3.1l1.8,6.3c2.3-1.4,5.9-2.6,9.4-2.6
			c5.7,0,6.6,3.2,6.6,5.3v0.5c-12.4,0-20.3,4.3-20.3,13.1c0,5.4,4,10.4,11,10.4c4.3,0,7.9-1.7,10-4.4h0.2c0,0,1.4,5.9,9.3,3.7
			c-0.4-2.5-0.5-5.1-0.5-8.3V41.8z M184.6,50.1c0,0.6-0.1,1.3-0.2,1.9c-0.7,2.4-3.2,4.4-6.3,4.4c-2.6,0-4.6-1.5-4.6-4.6
			c0-4.7,5.2-6,11.1-6V50.1z"/>
		<path fill="#FFFFFF" d="M0,16.6c0,0,8.1,33.3,9.4,38.7c1.5,6.3,4.2,8.6,12.1,7.1l5.1-20.7c1.3-5.1,2.2-8.8,3-14h0.1
			c0.6,5.3,1.4,8.9,2.5,14c0,0,2.1,9.4,3.1,14.3c1.1,4.9,4,8,11.7,6.3l12.1-45.8h-9.8l-4.1,19.8c-1.1,5.8-2.1,10.3-2.9,15.5h-0.1
			c-0.7-5.2-1.6-9.5-2.7-15.2l-4.3-20.2H25l-4.6,19.7c-1.3,6-2.5,10.8-3.3,15.9H17c-0.8-4.8-1.9-10.9-3-16.6c0,0-2.7-14.1-3.7-18.9
			H0z"/>
		<path fill="#FFFFFF" d="M86.9,41.8c0-7.8-3.3-14.7-14.6-14.7c-5.8,0-10.4,1.6-12.9,3.1l1.8,6.3c2.3-1.4,5.9-2.6,9.4-2.6
			c5.7,0,6.6,3.2,6.6,5.3v0.5C64.9,39.6,57,44,57,52.7c0,5.4,4,10.4,11,10.4c4.3,0,7.9-1.7,10-4.4h0.2c0,0,1.4,5.9,9.3,3.7
			c-0.4-2.5-0.5-5.1-0.5-8.3V41.8z M77.6,50.1c0,0.6-0.1,1.3-0.2,1.9c-0.7,2.4-3.2,4.4-6.3,4.4c-2.6,0-4.6-1.5-4.6-4.6
			c0-4.7,5.2-6,11.1-6V50.1z"/>
		<polygon fill="#FFFFFF" points="102.4,52.6 102.4,16.6 93.1,16.6 93.1,62.3 102.4,62.3 		"/>
		<path fill="#FFFFFF" d="M224.1,16.6c0,4.4,0,33.8,0,33.8c0,4.7,0.9,7.9,2.8,9.9c1.6,1.7,4.3,2.9,7.6,2.9c2.7,0,5.5-0.5,6.7-1
			l-0.1-7.3c-1,0.2-2,0.4-3.5,0.4c-3.2,0-4.2-2-4.2-6.2V36.1h8.1v-8.8h-8.1V16.6H224.1z"/>
		<path fill="#FFFFFF" d="M200.1,27.9v34.4h9.6V44.7c0-1,0.1-1.8,0.2-2.5c0.7-3.7,3.5-6,7.6-6c1.1,0,1.9,0.1,2.8,0.2v-9
			c-0.7-0.1-1.2-0.2-2.1-0.2c-3.6,0-7.7,2.3-9.4,7.3h-0.3v-6.5H200.1z"/>
		<path fill="#FFFFFF" d="M108.9,27.9v34.4h9.4V42.2c0-0.9,0.1-1.9,0.4-2.8c0.8-2,2.7-4.4,5.7-4.4c3.8,0,5.5,3.2,5.5,7.8v19.6h9.3
			V41.9c0-0.9,0.1-2,0.4-2.8c0.8-2.3,2.8-4.2,5.6-4.2c3.8,0,5.7,3.1,5.7,8.5c0,0,0,14.5,0,18.8h9.3V42.1c0-10.7-5.4-14.9-11.5-14.9
			c-2.7,0-4.9,0.7-6.8,1.9c-1.6,1-3.1,2.4-4.4,4.3h-0.1c-1.5-3.7-5-6.2-9.5-6.2c-5.8,0-8.4,3-10,5.5h-0.1v-4.7H108.9z"/>
		<path fill="#FEBC11" d="M293.9,54.6c-0.2-1.2-1.7-2.2-3.6-2.2c-1.9,0-3.4,1-3.6,2.2l-1.8,20.7c0,2,2.4,3.7,5.4,3.7
			c3,0,5.4-1.7,5.4-3.7L293.9,54.6L293.9,54.6z"/>
		<path fill="#FEBC11" d="M279,50.1c1-0.8,1.1-2.6,0.1-4.2c-0.9-1.6-2.5-2.4-3.7-2l-18.8,8.8c-1.8,1-2,3.9-0.5,6.5
			c1.5,2.6,4.2,3.9,5.9,2.8L279,50.1L279,50.1z"/>
		<path fill="#FEBC11" d="M305.2,44c-1.2-0.4-2.8,0.4-3.7,2c-0.9,1.6-0.9,3.4,0.1,4.2l17,11.9c1.8,1,4.4-0.2,5.9-2.8
			c1.5-2.6,1.3-5.5-0.5-6.6L305.2,44L305.2,44z"/>
		<path fill="#FEBC11" d="M294,24.4c-0.2,1.2-1.7,2.2-3.6,2.2c-1.8,0-3.4-1-3.6-2.2L285,3.7c0-2,2.4-3.7,5.4-3.7
			c3,0,5.4,1.7,5.4,3.7L294,24.4L294,24.4z"/>
		<path fill="#FEBC11" d="M305.3,35.1c-1.2,0.5-2.8-0.4-3.7-2c-0.9-1.6-0.8-3.4,0.1-4.2l17-11.9c1.8-1,4.4,0.2,5.9,2.8
			c1.5,2.6,1.3,5.5-0.5,6.6L305.3,35.1L305.3,35.1z"/>
		<path fill="#FEBC11" d="M279.1,28.8c1,0.8,1.1,2.6,0.1,4.2c-0.9,1.6-2.5,2.4-3.7,2l-18.8-8.8c-1.8-1-2-3.9-0.5-6.5
			c1.5-2.6,4.2-3.9,5.9-2.8L279.1,28.8L279.1,28.8z"/>
	</g>
	<g>
		<path fill="#FFFFFF" d="M140.3,93.8c-1.9,0.6-5.3,1.4-8.5,1.4c-4.8,0-8.1-1.2-10.3-3.3c-2.3-2.2-3.5-5.4-3.5-8.9
			c0-8.6,6.4-12.9,14.4-12.9c3.3,0,5.8,0.6,7.1,1.2l-1.3,5.3c-1.4-0.6-3.1-1.1-5.8-1.1c-4,0-7.4,2.1-7.4,7.1c0,4.6,3,7.3,7,7.3
			c0.9,0,1.7-0.1,2.1-0.2v-4.2h-3.3v-5.1h9.6V93.8z"/>
		<path fill="#FFFFFF" d="M143,83c0-2.8,0-4.6-0.1-6h5.6l0.3,3.2h0.1c0.9-2.7,3.2-3.6,4.8-3.6c0.6,0,0.8,0,1.3,0.1v6.2
			c-0.5-0.1-1-0.2-1.7-0.2c-1.9,0-3.2,0.8-3.6,2.3c0,0.3-0.1,0.7-0.1,1.1v8.9H143V83z"/>
		<path fill="#FFFFFF" d="M164.8,95.3c-5.4,0-9.5-3.4-9.5-9.2c0-5.7,3.8-9.5,9.9-9.5c5.6,0,9.3,3.8,9.3,9.2
			C174.5,92.3,169.8,95.3,164.8,95.3L164.8,95.3z M165,90.7c1.8,0,2.7-1.9,2.7-4.7c0-2.5-0.8-4.7-2.7-4.7c-2.2,0-2.9,2.4-2.9,4.7
			C162.1,88.7,162.9,90.7,165,90.7L165,90.7z"/>
		<path fill="#FFFFFF" d="M190.3,94.5c-1.1,0.5-2.9,0.8-4.9,0.8c-6,0-9.7-3.5-9.7-9.2c0-5.1,3.5-9.5,10.5-9.5c1.3,0,2.8,0.2,4.1,0.6
			l-0.9,4.8c-0.6-0.3-1.5-0.4-2.8-0.4c-2.4,0-4.2,1.7-4.2,4.3c0,2.9,2,4.3,4.3,4.3c1.1,0,2-0.1,2.9-0.5L190.3,94.5z"/>
		<path fill="#FFFFFF" d="M196.5,88.3c0.2,1.4,2.3,2.2,4.6,2.2c1.7,0,3.3-0.2,4.9-0.7l0.8,4.4c-2.2,0.8-4.5,1.1-6.7,1.1
			c-6.3,0-9.9-3.5-9.9-9.1c0-4.2,2.7-9.5,9.3-9.5c5.8,0,8.3,4.3,8.3,9.2c0,1.1-0.1,2-0.3,2.5H196.5z M201.8,83.8
			c0-1-0.5-2.9-2.6-2.9c-1.9,0-2.7,1.8-2.8,2.9H201.8z"/>
		<path fill="#FFFFFF" d="M209.6,83c0-2.8,0-4.6-0.1-6h5.6l0.3,3.2h0.1c0.9-2.7,3.2-3.6,4.8-3.6c0.6,0,0.8,0,1.3,0.1v6.2
			c-0.5-0.1-1-0.2-1.7-0.2c-1.9,0-3.2,0.8-3.6,2.3c0,0.3-0.1,0.7-0.1,1.1v8.9h-6.6V83z"/>
		<path fill="#FFFFFF" d="M229,77l2.2,8.1c0.3,1,0.5,2.3,0.8,3.2h0.1c0.2-0.9,0.4-2.3,0.7-3.2l1.6-8.1h7l-3.8,11.4
			c-2.7,7.5-4.4,10.2-6.4,12c-2.1,1.8-4.3,2.4-6,2.6l-1.3-5.5c0.7-0.1,1.5-0.3,2.3-0.7c0.8-0.3,1.7-1.1,2.1-1.6
			c0.2-0.3,0.3-0.5,0.3-0.8c0-0.2,0-0.5-0.3-0.9L221.7,77H229z"/>
	</g>
</g>
</svg>
